<svg width="160" height="12" viewBox="0 0 160 12" fill="none" xmlns="http://www.w3.org/2000/svg">
<path d="M4.704 9.108C3.872 9.108 3.16 8.932 2.568 8.58C1.976 8.228 1.52 7.728 1.2 7.08C0.888 6.432 0.732 5.66 0.732 4.764C0.732 3.876 0.888 3.108 1.2 2.46C1.52 1.812 1.976 1.312 2.568 0.96C3.16 0.608 3.872 0.431999 4.704 0.431999C5.2 0.431999 5.672 0.503999 6.12 0.648C6.568 0.792 6.956 0.996 7.284 1.26C7.42 1.356 7.496 1.468 7.512 1.596C7.536 1.724 7.516 1.84 7.452 1.944C7.388 2.04 7.296 2.104 7.176 2.136C7.064 2.16 6.936 2.12 6.792 2.016C6.224 1.56 5.536 1.332 4.728 1.332C3.776 1.332 3.048 1.632 2.544 2.232C2.04 2.832 1.788 3.676 1.788 4.764C1.788 5.86 2.04 6.708 2.544 7.308C3.048 7.908 3.776 8.208 4.728 8.208C5.536 8.208 6.232 7.976 6.816 7.512C6.96 7.416 7.088 7.38 7.2 7.404C7.32 7.428 7.408 7.488 7.464 7.584C7.528 7.68 7.552 7.788 7.536 7.908C7.52 8.028 7.452 8.136 7.332 8.232C6.988 8.52 6.592 8.74 6.144 8.892C5.696 9.036 5.216 9.108 4.704 9.108ZM11.557 9.108C10.637 9.108 9.90903 8.84 9.37303 8.304C8.83703 7.76 8.56903 7.024 8.56903 6.096C8.56903 5.496 8.68903 4.968 8.92903 4.512C9.16903 4.048 9.49703 3.692 9.91303 3.444C10.337 3.188 10.825 3.06 11.377 3.06C12.169 3.06 12.789 3.316 13.237 3.828C13.685 4.332 13.909 5.028 13.909 5.916C13.909 6.164 13.769 6.288 13.489 6.288H9.51703C9.54903 6.952 9.74103 7.46 10.093 7.812C10.445 8.156 10.933 8.328 11.557 8.328C11.821 8.328 12.089 8.296 12.361 8.232C12.633 8.16 12.897 8.036 13.153 7.86C13.337 7.74 13.489 7.716 13.609 7.788C13.737 7.86 13.801 7.972 13.801 8.124C13.809 8.268 13.729 8.396 13.561 8.508C13.297 8.7 12.981 8.848 12.613 8.952C12.253 9.056 11.901 9.108 11.557 9.108ZM11.401 3.78C10.849 3.78 10.413 3.952 10.093 4.296C9.77303 4.64 9.58503 5.092 9.52903 5.652H13.069C13.045 5.06 12.889 4.6 12.601 4.272C12.321 3.944 11.921 3.78 11.401 3.78ZM17.1249 9.084C16.7969 9.084 16.6329 8.916 16.6329 8.58V3.948H14.8809C14.5769 3.948 14.4249 3.816 14.4249 3.552C14.4249 3.296 14.5769 3.168 14.8809 3.168H19.3689C19.6649 3.168 19.8129 3.296 19.8129 3.552C19.8129 3.816 19.6649 3.948 19.3689 3.948H17.6049V8.58C17.6049 8.916 17.4449 9.084 17.1249 9.084ZM21.257 9C20.921 9 20.753 8.832 20.753 8.496V3.576C20.753 3.248 20.917 3.084 21.245 3.084C21.565 3.084 21.725 3.248 21.725 3.576V5.244H23.489C24.233 5.244 24.797 5.408 25.181 5.736C25.565 6.056 25.757 6.512 25.757 7.104C25.757 7.688 25.557 8.152 25.157 8.496C24.765 8.832 24.209 9 23.489 9H21.257ZM21.725 8.304H23.393C23.841 8.304 24.189 8.208 24.437 8.016C24.693 7.824 24.821 7.524 24.821 7.116C24.821 6.716 24.697 6.42 24.449 6.228C24.201 6.036 23.849 5.94 23.393 5.94H21.725V8.304ZM30.784 9.084C30.456 9.084 30.292 8.916 30.292 8.58V3.72C30.292 3.352 30.476 3.168 30.844 3.168H34.828C35.196 3.168 35.38 3.352 35.38 3.72V8.58C35.38 8.916 35.216 9.084 34.888 9.084C34.568 9.084 34.408 8.916 34.408 8.58V3.948H31.264V8.58C31.264 8.916 31.104 9.084 30.784 9.084ZM37.7438 9.084C37.4478 9.084 37.2998 8.908 37.2998 8.556V3.564C37.2998 3.244 37.4478 3.084 37.7438 3.084C38.0398 3.084 38.1878 3.244 38.1878 3.564V7.68L41.3798 3.396C41.4438 3.308 41.5158 3.236 41.5958 3.18C41.6838 3.116 41.7998 3.084 41.9438 3.084C42.2398 3.084 42.3878 3.256 42.3878 3.6V8.604C42.3878 8.924 42.2398 9.084 41.9438 9.084C41.6478 9.084 41.4998 8.924 41.4998 8.604V4.488L38.2958 8.772C38.2398 8.852 38.1678 8.924 38.0798 8.988C37.9998 9.052 37.8878 9.084 37.7438 9.084ZM49.7677 10.644C49.4877 10.644 49.3477 10.496 49.3477 10.2V9H44.8117C44.4757 9 44.3077 8.832 44.3077 8.496V3.576C44.3077 3.248 44.4717 3.084 44.7997 3.084C45.1197 3.084 45.2797 3.248 45.2797 3.576V8.22H48.2917V3.576C48.2917 3.248 48.4557 3.084 48.7837 3.084C49.1037 3.084 49.2637 3.248 49.2637 3.576V8.22H49.6957C50.0237 8.22 50.1877 8.38 50.1877 8.7V10.2C50.1877 10.496 50.0477 10.644 49.7677 10.644ZM56.9395 10.644C56.6595 10.644 56.5195 10.496 56.5195 10.2V9H51.9835C51.6475 9 51.4795 8.832 51.4795 8.496V3.576C51.4795 3.248 51.6435 3.084 51.9715 3.084C52.2915 3.084 52.4515 3.248 52.4515 3.576V8.22H55.4635V3.576C55.4635 3.248 55.6275 3.084 55.9555 3.084C56.2755 3.084 56.4355 3.248 56.4355 3.576V8.22H56.8675C57.1955 8.22 57.3595 8.38 57.3595 8.7V10.2C57.3595 10.496 57.2195 10.644 56.9395 10.644ZM61.2914 9.108C60.3714 9.108 59.6434 8.84 59.1074 8.304C58.5714 7.76 58.3034 7.024 58.3034 6.096C58.3034 5.496 58.4234 4.968 58.6634 4.512C58.9034 4.048 59.2314 3.692 59.6474 3.444C60.0714 3.188 60.5594 3.06 61.1114 3.06C61.9034 3.06 62.5234 3.316 62.9714 3.828C63.4194 4.332 63.6434 5.028 63.6434 5.916C63.6434 6.164 63.5034 6.288 63.2234 6.288H59.2514C59.2834 6.952 59.4754 7.46 59.8274 7.812C60.1794 8.156 60.6674 8.328 61.2914 8.328C61.5554 8.328 61.8234 8.296 62.0954 8.232C62.3674 8.16 62.6314 8.036 62.8874 7.86C63.0714 7.74 63.2234 7.716 63.3434 7.788C63.4714 7.86 63.5354 7.972 63.5354 8.124C63.5434 8.268 63.4634 8.396 63.2954 8.508C63.0314 8.7 62.7154 8.848 62.3474 8.952C61.9874 9.056 61.6354 9.108 61.2914 9.108ZM61.1354 3.78C60.5834 3.78 60.1474 3.952 59.8274 4.296C59.5074 4.64 59.3194 5.092 59.2634 5.652H62.8034C62.7794 5.06 62.6234 4.6 62.3354 4.272C62.0554 3.944 61.6554 3.78 61.1354 3.78ZM65.6473 11.244C65.3273 11.244 65.1673 11.08 65.1673 10.752V3.576C65.1673 3.248 65.3233 3.084 65.6353 3.084C65.9633 3.084 66.1273 3.248 66.1273 3.576V4.2C66.2953 3.848 66.5553 3.572 66.9073 3.372C67.2593 3.164 67.6633 3.06 68.1193 3.06C68.6393 3.06 69.0913 3.184 69.4753 3.432C69.8673 3.672 70.1673 4.02 70.3753 4.476C70.5913 4.924 70.6993 5.46 70.6993 6.084C70.6993 6.7 70.5913 7.236 70.3753 7.692C70.1673 8.14 69.8673 8.488 69.4753 8.736C69.0913 8.984 68.6393 9.108 68.1193 9.108C67.6713 9.108 67.2713 9.008 66.9193 8.808C66.5673 8.608 66.3073 8.332 66.1393 7.98V10.752C66.1393 11.08 65.9753 11.244 65.6473 11.244ZM67.9153 8.328C68.4593 8.328 68.8953 8.136 69.2233 7.752C69.5513 7.36 69.7153 6.804 69.7153 6.084C69.7153 5.356 69.5513 4.8 69.2233 4.416C68.8953 4.032 68.4593 3.84 67.9153 3.84C67.3713 3.84 66.9353 4.032 66.6073 4.416C66.2793 4.8 66.1153 5.356 66.1153 6.084C66.1153 6.804 66.2793 7.36 66.6073 7.752C66.9353 8.136 67.3713 8.328 67.9153 8.328ZM72.7126 9.084C72.4166 9.084 72.2686 8.908 72.2686 8.556V3.564C72.2686 3.244 72.4166 3.084 72.7126 3.084C73.0086 3.084 73.1566 3.244 73.1566 3.564V7.68L76.3486 3.396C76.4126 3.308 76.4846 3.236 76.5646 3.18C76.6526 3.116 76.7686 3.084 76.9126 3.084C77.2086 3.084 77.3566 3.256 77.3566 3.6V8.604C77.3566 8.924 77.2086 9.084 76.9126 9.084C76.6166 9.084 76.4686 8.924 76.4686 8.604V4.488L73.2646 8.772C73.2086 8.852 73.1366 8.924 73.0486 8.988C72.9686 9.052 72.8566 9.084 72.7126 9.084ZM79.7204 9.084C79.4244 9.084 79.2764 8.908 79.2764 8.556V3.564C79.2764 3.244 79.4244 3.084 79.7204 3.084C80.0164 3.084 80.1644 3.244 80.1644 3.564V7.68L83.3564 3.396C83.4204 3.308 83.4924 3.236 83.5724 3.18C83.6604 3.116 83.7764 3.084 83.9204 3.084C84.2164 3.084 84.3644 3.256 84.3644 3.6V8.604C84.3644 8.924 84.2164 9.084 83.9204 9.084C83.6244 9.084 83.4764 8.924 83.4764 8.604V4.488L80.2724 8.772C80.2164 8.852 80.1444 8.924 80.0564 8.988C79.9764 9.052 79.8644 9.084 79.7204 9.084ZM81.8204 2.412C81.3964 2.412 81.0044 2.304 80.6444 2.088C80.2924 1.872 80.0284 1.544 79.8524 1.104C79.7724 0.872 79.8284 0.72 80.0204 0.648C80.1964 0.583999 80.3364 0.659999 80.4404 0.875999C80.7204 1.492 81.1804 1.8 81.8204 1.8C82.4604 1.8 82.9204 1.492 83.2004 0.875999C83.3044 0.659999 83.4444 0.583999 83.6204 0.648C83.7084 0.68 83.7684 0.736 83.8004 0.816C83.8324 0.895999 83.8244 0.991999 83.7764 1.104C83.5844 1.552 83.3164 1.884 82.9724 2.1C82.6284 2.308 82.2444 2.412 81.8204 2.412ZM99.314 4.068C98.81 4.068 98.39 3.904 98.054 3.576C97.718 3.24 97.55 2.796 97.55 2.244C97.55 1.692 97.718 1.252 98.054 0.924C98.39 0.595999 98.81 0.431999 99.314 0.431999C99.818 0.431999 100.234 0.595999 100.562 0.924C100.898 1.252 101.066 1.692 101.066 2.244C101.066 2.796 100.898 3.24 100.562 3.576C100.234 3.904 99.818 4.068 99.314 4.068ZM89.93 9.084C89.618 9.084 89.462 8.92 89.462 8.592V0.96C89.462 0.624 89.606 0.456 89.894 0.456C90.014 0.456 90.106 0.48 90.17 0.528C90.234 0.568 90.306 0.644 90.386 0.756L95.33 7.344V0.935999C95.33 0.616 95.486 0.456 95.798 0.456C96.094 0.456 96.242 0.616 96.242 0.935999V8.604C96.242 8.924 96.11 9.084 95.846 9.084C95.726 9.084 95.63 9.06 95.558 9.012C95.486 8.964 95.41 8.888 95.33 8.784L90.386 2.172V8.592C90.386 8.92 90.234 9.084 89.93 9.084ZM99.314 3.516C99.642 3.516 99.898 3.408 100.082 3.192C100.274 2.968 100.37 2.652 100.37 2.244C100.37 1.836 100.274 1.524 100.082 1.308C99.898 1.092 99.642 0.983999 99.314 0.983999C98.986 0.983999 98.726 1.092 98.534 1.308C98.342 1.516 98.246 1.828 98.246 2.244C98.246 2.66 98.342 2.976 98.534 3.192C98.726 3.408 98.986 3.516 99.314 3.516ZM97.922 5.868C97.682 5.868 97.562 5.756 97.562 5.532C97.562 5.308 97.682 5.196 97.922 5.196H100.718C100.95 5.196 101.066 5.308 101.066 5.532C101.066 5.756 100.95 5.868 100.718 5.868H97.922ZM103.227 9C102.923 9 102.771 8.856 102.771 8.568C102.771 8.296 102.923 8.16 103.227 8.16H104.787V1.692L103.563 2.508C103.435 2.588 103.315 2.612 103.203 2.58C103.099 2.54 103.019 2.472 102.963 2.376C102.907 2.28 102.887 2.176 102.903 2.064C102.927 1.952 103.003 1.852 103.131 1.764L104.787 0.672C104.891 0.608 104.991 0.556 105.087 0.516C105.183 0.476 105.279 0.456 105.375 0.456C105.487 0.456 105.579 0.492 105.651 0.564C105.731 0.628 105.771 0.731999 105.771 0.875999V8.16H107.211C107.515 8.16 107.667 8.296 107.667 8.568C107.667 8.856 107.515 9 107.211 9H103.227ZM113.12 9C112.784 9 112.616 8.832 112.616 8.496V3.672C112.616 3.336 112.784 3.168 113.12 3.168H115.46C116.148 3.168 116.656 3.3 116.984 3.564C117.312 3.82 117.476 4.2 117.476 4.704C117.476 5.008 117.388 5.272 117.212 5.496C117.044 5.72 116.812 5.884 116.516 5.988C116.876 6.076 117.156 6.244 117.356 6.492C117.564 6.74 117.668 7.04 117.668 7.392C117.668 7.888 117.484 8.28 117.116 8.568C116.748 8.856 116.228 9 115.556 9H113.12ZM113.54 5.7H115.412C115.78 5.7 116.064 5.62 116.264 5.46C116.464 5.292 116.564 5.056 116.564 4.752C116.564 4.456 116.464 4.228 116.264 4.068C116.064 3.908 115.78 3.828 115.412 3.828H113.54V5.7ZM113.54 8.34H115.52C115.92 8.34 116.224 8.256 116.432 8.088C116.64 7.92 116.744 7.672 116.744 7.344C116.744 7.024 116.64 6.78 116.432 6.612C116.224 6.444 115.92 6.36 115.52 6.36H113.54V8.34ZM122.849 9.084C122.521 9.084 122.357 8.912 122.357 8.568V1.044C122.357 0.707999 122.525 0.539999 122.861 0.539999H125.705C126.617 0.539999 127.313 0.76 127.793 1.2C128.281 1.64 128.525 2.268 128.525 3.084C128.525 3.892 128.281 4.52 127.793 4.968C127.313 5.408 126.617 5.628 125.705 5.628H123.341V8.568C123.341 8.912 123.177 9.084 122.849 9.084ZM123.341 4.8H125.585C126.897 4.8 127.553 4.228 127.553 3.084C127.553 1.932 126.897 1.356 125.585 1.356H123.341V4.8ZM132.115 9.108C131.547 9.108 131.055 8.984 130.639 8.736C130.223 8.488 129.899 8.14 129.667 7.692C129.443 7.236 129.331 6.7 129.331 6.084C129.331 5.468 129.443 4.936 129.667 4.488C129.899 4.032 130.223 3.68 130.639 3.432C131.055 3.184 131.547 3.06 132.115 3.06C132.675 3.06 133.163 3.184 133.579 3.432C134.003 3.68 134.327 4.032 134.551 4.488C134.783 4.936 134.899 5.468 134.899 6.084C134.899 6.7 134.783 7.236 134.551 7.692C134.327 8.14 134.003 8.488 133.579 8.736C133.163 8.984 132.675 9.108 132.115 9.108ZM132.115 8.328C132.659 8.328 133.095 8.136 133.423 7.752C133.751 7.36 133.915 6.804 133.915 6.084C133.915 5.356 133.751 4.8 133.423 4.416C133.095 4.032 132.659 3.84 132.115 3.84C131.563 3.84 131.123 4.032 130.795 4.416C130.475 4.8 130.315 5.356 130.315 6.084C130.315 6.804 130.475 7.36 130.795 7.752C131.123 8.136 131.563 8.328 132.115 8.328ZM138.96 9.108C138.376 9.108 137.872 8.984 137.448 8.736C137.024 8.48 136.696 8.124 136.464 7.668C136.24 7.204 136.128 6.664 136.128 6.048C136.128 5.12 136.38 4.392 136.884 3.864C137.388 3.328 138.08 3.06 138.96 3.06C139.248 3.06 139.548 3.108 139.86 3.204C140.172 3.292 140.456 3.44 140.712 3.648C140.848 3.744 140.904 3.864 140.88 4.008C140.864 4.152 140.796 4.26 140.676 4.332C140.564 4.404 140.432 4.388 140.28 4.284C140.064 4.124 139.848 4.012 139.632 3.948C139.424 3.884 139.22 3.852 139.02 3.852C138.412 3.852 137.944 4.044 137.616 4.428C137.288 4.804 137.124 5.348 137.124 6.06C137.124 6.756 137.288 7.308 137.616 7.716C137.944 8.116 138.412 8.316 139.02 8.316C139.22 8.316 139.424 8.284 139.632 8.22C139.848 8.156 140.064 8.044 140.28 7.884C140.432 7.78 140.564 7.768 140.676 7.848C140.788 7.92 140.848 8.028 140.856 8.172C140.872 8.316 140.816 8.432 140.688 8.52C140.432 8.728 140.152 8.88 139.848 8.976C139.544 9.064 139.248 9.108 138.96 9.108ZM144.632 9.108C144.048 9.108 143.544 8.984 143.12 8.736C142.696 8.48 142.368 8.124 142.136 7.668C141.912 7.204 141.8 6.664 141.8 6.048C141.8 5.12 142.052 4.392 142.556 3.864C143.06 3.328 143.752 3.06 144.632 3.06C144.92 3.06 145.22 3.108 145.532 3.204C145.844 3.292 146.128 3.44 146.384 3.648C146.52 3.744 146.576 3.864 146.552 4.008C146.536 4.152 146.468 4.26 146.348 4.332C146.236 4.404 146.104 4.388 145.952 4.284C145.736 4.124 145.52 4.012 145.304 3.948C145.096 3.884 144.892 3.852 144.692 3.852C144.084 3.852 143.616 4.044 143.288 4.428C142.96 4.804 142.796 5.348 142.796 6.06C142.796 6.756 142.96 7.308 143.288 7.716C143.616 8.116 144.084 8.316 144.692 8.316C144.892 8.316 145.096 8.284 145.304 8.22C145.52 8.156 145.736 8.044 145.952 7.884C146.104 7.78 146.236 7.768 146.348 7.848C146.46 7.92 146.52 8.028 146.528 8.172C146.544 8.316 146.488 8.432 146.36 8.52C146.104 8.728 145.824 8.88 145.52 8.976C145.216 9.064 144.92 9.108 144.632 9.108ZM148.263 9.084C147.967 9.084 147.819 8.908 147.819 8.556V3.564C147.819 3.244 147.967 3.084 148.263 3.084C148.559 3.084 148.707 3.244 148.707 3.564V7.68L151.899 3.396C151.963 3.308 152.035 3.236 152.115 3.18C152.203 3.116 152.319 3.084 152.463 3.084C152.759 3.084 152.907 3.256 152.907 3.6V8.604C152.907 8.924 152.759 9.084 152.463 9.084C152.167 9.084 152.019 8.924 152.019 8.604V4.488L148.815 8.772C148.759 8.852 148.687 8.924 148.599 8.988C148.519 9.052 148.407 9.084 148.263 9.084ZM155.271 9.084C154.975 9.084 154.827 8.908 154.827 8.556V3.564C154.827 3.244 154.975 3.084 155.271 3.084C155.567 3.084 155.715 3.244 155.715 3.564V7.68L158.907 3.396C158.971 3.308 159.043 3.236 159.123 3.18C159.211 3.116 159.327 3.084 159.471 3.084C159.767 3.084 159.915 3.256 159.915 3.6V8.604C159.915 8.924 159.767 9.084 159.471 9.084C159.175 9.084 159.027 8.924 159.027 8.604V4.488L155.823 8.772C155.767 8.852 155.695 8.924 155.607 8.988C155.527 9.052 155.415 9.084 155.271 9.084Z" fill="#343434"/>
</svg>
